# xmcd
#
# Track frame offsets:
#	150
#	17198
#	37590
#	54477
#	67089
#	80459
#	94943
#	111412
#	125674
#	142465
#	159513
#	179905
#	196792
#	209404
#	222774
#	237258
#	253727
#	267989
#
# Disc length: 3797 seconds
#
# Revision: 0
# Processed by: cddbd v1.5.1PL2 Copyright (c) Steve Scherf et al.
# Submitted via: audiograbber 1.83.01
#
DISCID=160ed312
DTITLE=Pop Hits Monthly - phmc0412
DYEAR=1900
DGENRE=
TTITLE0=Big and Rich - Holy Water
TTITLE1=McGraw, Tim - Back When
TTITLE2=Twain, Shania and Currington, Billy - Party For Two
TTITLE3=Gracin, Joshua - Nothin' To Lose
TTITLE4=Rimes, Leann - Nothin' 'Bout Love Makes Sense
TTITLE5=Bryant, Keith - Ridin' With The Legend
TTITLE6=Dean, Billy - Let Them Be Little
TTITLE7=Paisley, Brad - Mud On The Tires
TTITLE8=Proctor, Rachael - Where I Belong
TTITLE9=Big and Rich - Holy Water (Vocal)
TTITLE10=McGraw, Tim - Back When (Vocal)
TTITLE11=Twain, Shania and Currington, Billy - Party For Two (Vocal)
TTITLE12=Gracin, Joshua - Nothin' To Lose (Vocal)
TTITLE13=Rimes, Leann - Nothin' 'Bout Love Makes Sense (Vocal)
TTITLE14=Bryant, Keith - Ridin' With The Legend (Vocal)
TTITLE15=Dean, Billy - Let Them Be Little (Vocal)
TTITLE16=Paisley, Brad - Mud On The Tires (Vocal)
TTITLE17=Proctor, Rachael - Where I Belong (Vocal)
EXTD=
EXTT0=
EXTT1=
EXTT2=
EXTT3=
EXTT4=
EXTT5=
EXTT6=
EXTT7=
EXTT8=
EXTT9=
EXTT10=
EXTT11=
EXTT12=
EXTT13=
EXTT14=
EXTT15=
EXTT16=
EXTT17=
PLAYORDER=
